<svg width="45" height="45" viewBox="0 0 301 261" fill="none" xmlns="http://www.w3.org/2000/svg">
<path d="M301 113.612C301 188.229 277.821 261 193.747 261C109.673 261 0 234.288 0 159.671C0 85.0537 81.9947 0 166.069 0C250.143 0 301 38.9948 301 113.612Z" fill="#FADA6F"/>
<path d="M161.64 56.1438C149.383 55.4537 137.199 57.2578 125.862 61.3321C114.53 65.4065 104.448 71.68 96.4123 79.6669C88.3772 87.6538 82.5888 97.1258 79.5217 107.35C76.4546 117.574 76.1811 128.274 78.7243 138.602C81.2667 148.936 86.5646 158.617 94.1879 166.895C101.816 175.172 111.564 181.822 122.683 186.315C133.797 190.813 145.97 193.031 158.25 192.807C170.529 192.579 182.58 189.914 193.465 185.01C193.811 184.858 194.201 184.787 194.591 184.806C194.982 184.825 195.361 184.93 195.685 185.115C197.993 186.438 200.402 187.624 202.894 188.666C211.533 192.26 221.018 194.083 230.61 193.997C231.201 193.997 231.764 193.797 232.182 193.44C232.6 193.083 232.835 192.598 232.835 192.088V168.88C232.84 168.423 232.662 167.985 232.321 167.632C231.982 167.281 231.513 167.047 230.989 166.971C228.435 166.623 225.937 166.009 223.556 165.139C223.26 165.024 222.998 164.862 222.786 164.653C222.574 164.443 222.418 164.201 222.329 163.934C222.239 163.667 222.217 163.392 222.262 163.116C222.307 162.845 222.424 162.582 222.596 162.349C230.353 152.368 234.92 140.806 235.83 128.831C236.744 116.855 233.967 104.879 227.788 94.1129C221.609 83.3462 212.247 74.1741 200.631 67.5056C189.021 60.8419 175.57 56.9197 161.64 56.1438ZM108.407 124.437C108.396 116.246 111.213 108.23 116.499 101.414C121.785 94.5983 129.308 89.2817 138.108 86.1402C146.907 82.9987 156.599 82.1753 165.945 83.7698C175.291 85.3644 176.568 85.9898 183.31 91.7778C190.052 97.5704 160.532 124.632 162.389 132.667C164.252 140.701 204.713 132.672 201.066 140.245C197.418 147.813 191.24 154.281 183.31 158.832C175.386 163.382 166.068 165.805 156.538 165.8C143.774 165.8 131.527 161.445 122.499 153.686C113.471 145.928 108.385 135.409 108.374 124.433L108.407 124.437Z" fill="#2F2F2F" fill-opacity="0.85"/>
</svg>
