<svg width="20" height="20" viewBox="0 0 23 22" fill="none" xmlns="http://www.w3.org/2000/svg">
<path d="M17.7786 22C17.5053 22 17.2335 21.9161 16.9995 21.7491L11.4976 17.8034L5.99574 21.7491C5.52705 22.0845 4.89807 22.0845 4.43209 21.7437C3.9661 21.4062 3.76997 20.807 3.94446 20.2598L5.99641 13.6373L0.543925 9.79513C0.0806459 9.45359 -0.112105 8.85302 0.0650905 8.3052C0.243639 7.75874 0.752231 7.38744 1.3271 7.38338L8.08015 7.37323L10.2302 0.91506C10.4114 0.367918 10.922 0 11.4976 0C12.0731 0 12.5838 0.368594 12.7657 0.91506L14.8792 7.37323L21.6667 7.38338C22.2436 7.38744 22.7529 7.75941 22.9294 8.3052C23.1073 8.85302 22.9145 9.45359 22.4506 9.79513L16.9981 13.6373L19.0501 20.2598C19.2259 20.807 19.0277 21.4062 18.5631 21.7437C18.3284 21.9155 18.0538 22 17.7786 22Z" fill="#FFAC33"/>
</svg>
