<svg width="60" height="60" viewBox="0 0 60 60" fill="none" xmlns="http://www.w3.org/2000/svg">
<rect width="60" height="60" rx="30" fill="#FADA6F" fill-opacity="0.91"/>
<path d="M43.8826 24.226L41.3697 26.6615C41.1135 26.9098 40.6993 26.9098 40.4431 26.6615L34.3926 20.7973C34.1365 20.549 34.1365 20.1474 34.3926 19.8991L36.9055 17.4636C37.9248 16.4757 39.5818 16.4757 40.6066 17.4636L43.8826 20.6388C44.9073 21.6267 44.9073 23.2328 43.8826 24.226ZM32.2341 21.9912L17.9202 35.8647L16.7647 42.2837C16.6066 43.1501 17.386 43.9003 18.28 43.7524L24.9027 42.6271L39.2166 28.7536C39.4728 28.5053 39.4728 28.1038 39.2166 27.8555L33.1662 21.9912C32.9046 21.7429 32.4903 21.7429 32.2341 21.9912V21.9912ZM23.5073 34.676C23.2075 34.3854 23.2075 33.9205 23.5073 33.6299L31.9016 25.494C32.2014 25.2034 32.6811 25.2034 32.9809 25.494C33.2807 25.7845 33.2807 26.2494 32.9809 26.54L24.5866 34.676C24.2868 34.9666 23.8071 34.9666 23.5073 34.676V34.676ZM21.5396 39.1191H24.156V41.0369L20.6402 41.6339L18.945 39.9908L19.5609 36.5832H21.5396V39.1191Z" fill="black"/>
</svg>


